<svg width="172" height="56" viewBox="0 0 172 56" fill="none" xmlns="http://www.w3.org/2000/svg">
<rect x="0.5" y="0.5" width="171" height="55" rx="7.5" fill="white"/>
<rect x="0.5" y="0.5" width="171" height="55" rx="7.5" stroke="#E3E3E3"/>
<path d="M36.0003 14.667C43.3643 14.667 49.3337 20.6363 49.3337 28.0003C49.3337 35.3643 43.3643 41.3337 36.0003 41.3337C28.6363 41.3337 22.667 35.3643 22.667 28.0003C22.667 20.6363 28.6363 14.667 36.0003 14.667ZM31.7643 32.4577C31.239 31.8212 30.5817 31.595 29.7923 31.779L29.5923 31.8337L28.8057 33.1883C28.6573 33.4299 28.6082 33.7194 28.6685 33.9964C28.7289 34.2733 28.8941 34.5162 29.1295 34.6741C29.365 34.8319 29.6523 34.8926 29.9315 34.8433C30.2106 34.794 30.4599 34.6386 30.627 34.4097L30.7097 34.2857L31.7643 32.4577ZM37.6137 23.547C36.963 24.0857 36.307 25.6763 37.227 27.263L41.2803 34.2843C41.4207 34.5229 41.6459 34.6996 41.911 34.7793C42.176 34.859 42.4614 34.8357 42.71 34.7141C42.9586 34.5924 43.1522 34.3815 43.252 34.1233C43.3518 33.8652 43.3505 33.5789 43.2483 33.3217L43.183 33.1883L42.1137 31.3323H43.7003C43.8445 31.3327 43.9873 31.3045 44.1205 31.2495C44.2537 31.1944 44.3747 31.1136 44.4766 31.0116C44.5784 30.9096 44.6591 30.7885 44.714 30.6552C44.7689 30.522 44.7969 30.3791 44.7963 30.235C44.797 29.9676 44.6997 29.7093 44.5228 29.5088C44.3459 29.3083 44.1017 29.1796 43.8363 29.147L43.699 29.139H40.8457L37.9203 24.0763L37.6137 23.547ZM37.9843 19.4883C37.7541 19.3561 37.4837 19.3116 37.2232 19.363C36.9627 19.4145 36.7297 19.5584 36.567 19.7683L36.4843 19.891L35.995 20.735L35.5163 19.891C35.376 19.6525 35.1507 19.4757 34.8857 19.396C34.6206 19.3163 34.3353 19.3396 34.0867 19.4613C33.8381 19.5829 33.6445 19.7938 33.5447 20.052C33.4449 20.3101 33.4462 20.5964 33.5483 20.8537L33.6137 20.987L34.731 22.9297L31.151 29.1337H28.355C28.211 29.1333 28.0683 29.1614 27.9352 29.2164C27.802 29.2713 27.6811 29.352 27.5792 29.4539C27.4774 29.5557 27.3967 29.6767 27.3417 29.8098C27.2867 29.943 27.2586 30.0856 27.259 30.2297C27.259 30.791 27.675 31.251 28.2177 31.319L28.355 31.327H38.3283C38.7817 30.4737 38.2483 29.2617 37.2483 29.143L37.087 29.1337H33.683L38.387 20.987C38.5323 20.7349 38.5715 20.4353 38.496 20.1543C38.4205 19.8732 38.2365 19.6337 37.9843 19.4883Z" fill="black"/>
<path d="M60.8858 21.5V13.34H62.2298V21.5H60.8858ZM63.6818 20.408C64.2658 20.408 64.7618 20.292 65.1698 20.06C65.5858 19.82 65.9018 19.48 66.1178 19.04C66.3418 18.592 66.4538 18.056 66.4538 17.432C66.4538 16.8 66.3418 16.26 66.1178 15.812C65.9018 15.364 65.5858 15.024 65.1698 14.792C64.7618 14.552 64.2658 14.432 63.6818 14.432H61.8578V13.34H63.6818C64.5378 13.34 65.2738 13.504 65.8898 13.832C66.5058 14.16 66.9818 14.628 67.3178 15.236C67.6538 15.844 67.8218 16.576 67.8218 17.432C67.8218 18.28 67.6538 19.008 67.3178 19.616C66.9818 20.224 66.5058 20.692 65.8898 21.02C65.2738 21.34 64.5378 21.5 63.6818 21.5H61.8578V20.408H63.6818ZM71.8798 21.656C71.2638 21.656 70.7318 21.524 70.2838 21.26C69.8358 20.988 69.4918 20.6 69.2518 20.096C69.0118 19.592 68.8918 18.996 68.8918 18.308C68.8918 17.58 69.0118 16.968 69.2518 16.472C69.4998 15.968 69.8478 15.588 70.2958 15.332C70.7518 15.068 71.2798 14.936 71.8798 14.936C72.5038 14.936 73.0398 15.072 73.4878 15.344C73.9358 15.616 74.2758 16.004 74.5078 16.508C74.7478 17.004 74.8678 17.604 74.8678 18.308C74.8678 19.02 74.7478 19.628 74.5078 20.132C74.2678 20.628 73.9238 21.008 73.4758 21.272C73.0278 21.528 72.4958 21.656 71.8798 21.656ZM71.8798 20.576C72.4238 20.576 72.8398 20.38 73.1278 19.988C73.4158 19.596 73.5598 19.036 73.5598 18.308C73.5598 17.572 73.4158 17.008 73.1278 16.616C72.8398 16.216 72.4238 16.016 71.8798 16.016C71.3358 16.016 70.9198 16.212 70.6318 16.604C70.3438 16.996 70.1998 17.564 70.1998 18.308C70.1998 19.036 70.3438 19.596 70.6318 19.988C70.9278 20.38 71.3438 20.576 71.8798 20.576ZM81.6161 21.5L80.3441 16.952L80.1761 16.04H80.2481L80.0681 16.952L78.7961 21.5H77.2121L75.3641 15.104H76.7441L77.9201 19.856L78.1121 20.732H78.0401L78.2441 19.856L79.5881 15.104H80.9441L82.3001 19.856L82.4921 20.732H82.4081L82.5881 19.856L83.7641 15.104H85.0841L83.2241 21.5H81.6161ZM85.9851 21.5V15.104H87.2691V21.5H85.9851ZM87.2691 17.744H86.7651C86.8051 17.12 86.9291 16.6 87.1371 16.184C87.3531 15.768 87.6371 15.456 87.9891 15.248C88.3411 15.04 88.7451 14.936 89.2011 14.936C89.6491 14.936 90.0331 15.024 90.3531 15.2C90.6731 15.368 90.9211 15.624 91.0971 15.968C91.2731 16.304 91.3611 16.724 91.3611 17.228V21.5H90.0891V17.492C90.0891 17.18 90.0411 16.916 89.9451 16.7C89.8491 16.476 89.7091 16.304 89.5251 16.184C89.3411 16.064 89.1011 16.004 88.8051 16.004C88.5651 16.004 88.3491 16.056 88.1571 16.16C87.9651 16.256 87.8011 16.384 87.6651 16.544C87.5371 16.704 87.4371 16.888 87.3651 17.096C87.3011 17.304 87.2691 17.52 87.2691 17.744ZM92.9226 21.5V12.86H94.2066V21.5H92.9226ZM98.4345 21.656C97.8185 21.656 97.2865 21.524 96.8385 21.26C96.3905 20.988 96.0465 20.6 95.8065 20.096C95.5665 19.592 95.4465 18.996 95.4465 18.308C95.4465 17.58 95.5665 16.968 95.8065 16.472C96.0545 15.968 96.4025 15.588 96.8505 15.332C97.3065 15.068 97.8345 14.936 98.4345 14.936C99.0585 14.936 99.5945 15.072 100.043 15.344C100.491 15.616 100.831 16.004 101.063 16.508C101.303 17.004 101.423 17.604 101.423 18.308C101.423 19.02 101.303 19.628 101.063 20.132C100.823 20.628 100.479 21.008 100.031 21.272C99.5825 21.528 99.0505 21.656 98.4345 21.656ZM98.4345 20.576C98.9785 20.576 99.3945 20.38 99.6825 19.988C99.9705 19.596 100.115 19.036 100.115 18.308C100.115 17.572 99.9705 17.008 99.6825 16.616C99.3945 16.216 98.9785 16.016 98.4345 16.016C97.8905 16.016 97.4745 16.212 97.1865 16.604C96.8985 16.996 96.7545 17.564 96.7545 18.308C96.7545 19.036 96.8985 19.596 97.1865 19.988C97.4825 20.38 97.8985 20.576 98.4345 20.576ZM103.885 17.192H102.601C102.673 16.72 102.825 16.316 103.057 15.98C103.289 15.644 103.601 15.388 103.993 15.212C104.385 15.028 104.845 14.936 105.373 14.936C105.949 14.936 106.429 15.044 106.813 15.26C107.205 15.468 107.497 15.76 107.689 16.136C107.881 16.512 107.977 16.948 107.977 17.444V19.94C107.977 20.324 107.993 20.636 108.025 20.876C108.065 21.116 108.121 21.324 108.193 21.5H106.849C106.777 21.34 106.733 21.14 106.717 20.9C106.701 20.66 106.693 20.416 106.693 20.168V17.456C106.693 16.992 106.577 16.636 106.345 16.388C106.121 16.14 105.765 16.016 105.277 16.016C104.861 16.016 104.537 16.124 104.305 16.34C104.081 16.548 103.941 16.832 103.885 17.192ZM106.873 17.6V18.476C106.217 18.476 105.681 18.508 105.265 18.572C104.849 18.636 104.525 18.728 104.293 18.848C104.061 18.96 103.901 19.096 103.813 19.256C103.725 19.408 103.681 19.58 103.681 19.772C103.681 20.044 103.785 20.26 103.993 20.42C104.201 20.572 104.473 20.648 104.809 20.648C105.169 20.648 105.489 20.564 105.769 20.396C106.057 20.22 106.281 19.988 106.441 19.7C106.609 19.412 106.693 19.1 106.693 18.764H107.269C107.237 19.276 107.137 19.716 106.969 20.084C106.801 20.452 106.585 20.752 106.321 20.984C106.065 21.216 105.785 21.388 105.481 21.5C105.177 21.604 104.873 21.656 104.569 21.656C104.137 21.656 103.757 21.588 103.429 21.452C103.101 21.316 102.845 21.112 102.661 20.84C102.477 20.568 102.385 20.228 102.385 19.82C102.385 19.38 102.505 19.004 102.745 18.692C102.985 18.38 103.345 18.14 103.825 17.972C104.273 17.82 104.737 17.72 105.217 17.672C105.697 17.624 106.249 17.6 106.873 17.6ZM111.987 21.656C111.427 21.656 110.943 21.524 110.535 21.26C110.127 20.988 109.815 20.6 109.599 20.096C109.383 19.592 109.275 18.996 109.275 18.308C109.275 17.22 109.519 16.388 110.007 15.812C110.495 15.228 111.155 14.936 111.987 14.936C112.707 14.936 113.279 15.224 113.703 15.8C114.135 16.376 114.351 17.212 114.351 18.308C114.351 18.996 114.255 19.592 114.063 20.096C113.871 20.592 113.595 20.976 113.235 21.248C112.883 21.52 112.467 21.656 111.987 21.656ZM112.155 20.576C112.667 20.576 113.055 20.384 113.319 20C113.591 19.608 113.727 19.044 113.727 18.308C113.727 17.572 113.587 17.008 113.307 16.616C113.035 16.216 112.651 16.016 112.155 16.016C111.643 16.016 111.251 16.212 110.979 16.604C110.715 16.996 110.583 17.564 110.583 18.308C110.583 19.036 110.719 19.596 110.991 19.988C111.271 20.38 111.659 20.576 112.155 20.576ZM113.727 21.5V12.86H115.011V21.5H113.727ZM121.591 21.656C120.975 21.656 120.443 21.524 119.995 21.26C119.547 20.988 119.203 20.6 118.963 20.096C118.723 19.592 118.603 18.996 118.603 18.308C118.603 17.58 118.723 16.968 118.963 16.472C119.211 15.968 119.559 15.588 120.007 15.332C120.463 15.068 120.991 14.936 121.591 14.936C122.215 14.936 122.751 15.072 123.199 15.344C123.647 15.616 123.987 16.004 124.219 16.508C124.459 17.004 124.579 17.604 124.579 18.308C124.579 19.02 124.459 19.628 124.219 20.132C123.979 20.628 123.635 21.008 123.187 21.272C122.739 21.528 122.207 21.656 121.591 21.656ZM121.591 20.576C122.135 20.576 122.551 20.38 122.839 19.988C123.127 19.596 123.271 19.036 123.271 18.308C123.271 17.572 123.127 17.008 122.839 16.616C122.551 16.216 122.135 16.016 121.591 16.016C121.047 16.016 120.631 16.212 120.343 16.604C120.055 16.996 119.911 17.564 119.911 18.308C119.911 19.036 120.055 19.596 120.343 19.988C120.639 20.38 121.055 20.576 121.591 20.576ZM125.829 21.5V15.104H127.113V21.5H125.829ZM127.113 17.744H126.609C126.649 17.12 126.773 16.6 126.981 16.184C127.197 15.768 127.481 15.456 127.833 15.248C128.185 15.04 128.589 14.936 129.045 14.936C129.493 14.936 129.877 15.024 130.197 15.2C130.517 15.368 130.765 15.624 130.941 15.968C131.117 16.304 131.205 16.724 131.205 17.228V21.5H129.933V17.492C129.933 17.18 129.885 16.916 129.789 16.7C129.693 16.476 129.553 16.304 129.369 16.184C129.185 16.064 128.945 16.004 128.649 16.004C128.409 16.004 128.193 16.056 128.001 16.16C127.809 16.256 127.645 16.384 127.509 16.544C127.381 16.704 127.281 16.888 127.209 17.096C127.145 17.304 127.113 17.52 127.113 17.744ZM135.29 19.592V13.628H136.574V19.52C136.574 19.888 136.646 20.16 136.79 20.336C136.942 20.512 137.238 20.6 137.678 20.6H137.93V21.536C137.866 21.576 137.758 21.604 137.606 21.62C137.462 21.644 137.302 21.656 137.126 21.656C136.51 21.656 136.05 21.484 135.746 21.14C135.442 20.796 135.29 20.28 135.29 19.592ZM134.426 16.1V15.104H137.954V16.1H134.426ZM138.919 21.5V12.86H140.203V21.5H138.919ZM140.203 17.744H139.699C139.739 17.12 139.863 16.6 140.071 16.184C140.287 15.768 140.571 15.456 140.923 15.248C141.275 15.04 141.679 14.936 142.135 14.936C142.583 14.936 142.967 15.024 143.287 15.2C143.607 15.368 143.855 15.624 144.031 15.968C144.207 16.304 144.295 16.724 144.295 17.228V21.5H143.023V17.492C143.023 17.18 142.975 16.916 142.879 16.7C142.783 16.476 142.643 16.304 142.459 16.184C142.275 16.064 142.035 16.004 141.739 16.004C141.499 16.004 141.283 16.056 141.091 16.16C140.899 16.256 140.735 16.384 140.599 16.544C140.471 16.704 140.371 16.888 140.299 17.096C140.235 17.304 140.203 17.52 140.203 17.744ZM150.92 17.672L150.188 18.272C150.188 17.544 150.044 16.984 149.756 16.592C149.468 16.2 149.056 16.004 148.52 16.004C147.976 16.004 147.56 16.204 147.272 16.604C146.992 16.996 146.852 17.564 146.852 18.308C146.852 19.036 147 19.6 147.296 20C147.6 20.392 148.028 20.588 148.58 20.588C148.988 20.588 149.328 20.492 149.6 20.3C149.88 20.108 150.076 19.812 150.188 19.412H151.532C151.356 20.156 151.004 20.716 150.476 21.092C149.956 21.468 149.324 21.656 148.58 21.656C147.956 21.656 147.416 21.524 146.96 21.26C146.504 20.988 146.152 20.6 145.904 20.096C145.664 19.592 145.544 18.996 145.544 18.308C145.544 17.58 145.664 16.968 145.904 16.472C146.152 15.968 146.5 15.588 146.948 15.332C147.396 15.068 147.92 14.936 148.52 14.936C149.136 14.936 149.664 15.072 150.104 15.344C150.544 15.608 150.884 15.984 151.124 16.472C151.364 16.96 151.484 17.548 151.484 18.236V18.548H146.072V17.672H150.92Z" fill="black"/>
<path d="M63.1724 39.052V37.644H68.6604V39.052H63.1724ZM69.3484 41.5L66.2604 33.404L65.8924 32.188H65.9884L65.6204 33.404L62.5324 41.5H60.7404L64.9324 30.62H67.0284L71.2204 41.5H69.3484ZM76.572 32.748C77.3293 32.748 77.9747 32.9293 78.508 33.292C79.052 33.644 79.468 34.156 79.756 34.828C80.044 35.4893 80.188 36.284 80.188 37.212C80.188 38.6627 79.8627 39.7773 79.212 40.556C78.5613 41.324 77.6813 41.708 76.572 41.708C75.612 41.708 74.844 41.324 74.268 40.556C73.7027 39.788 73.42 38.6733 73.42 37.212C73.42 36.3053 73.548 35.516 73.804 34.844C74.06 34.172 74.428 33.6547 74.908 33.292C75.388 32.9293 75.9427 32.748 76.572 32.748ZM76.364 34.188C75.6707 34.188 75.1427 34.4493 74.78 34.972C74.428 35.484 74.252 36.2307 74.252 37.212C74.252 38.1933 74.4333 38.9507 74.796 39.484C75.1693 40.0067 75.692 40.268 76.364 40.268C77.036 40.268 77.548 40.0067 77.9 39.484C78.2627 38.9613 78.444 38.204 78.444 37.212C78.444 36.2413 78.2627 35.4947 77.9 34.972C77.5373 34.4493 77.0253 34.188 76.364 34.188ZM74.252 45.02H72.54V32.972H74.252V45.02ZM85.8845 32.748C86.6418 32.748 87.2872 32.9293 87.8205 33.292C88.3645 33.644 88.7805 34.156 89.0685 34.828C89.3565 35.4893 89.5005 36.284 89.5005 37.212C89.5005 38.6627 89.1752 39.7773 88.5245 40.556C87.8738 41.324 86.9938 41.708 85.8845 41.708C84.9245 41.708 84.1565 41.324 83.5805 40.556C83.0152 39.788 82.7325 38.6733 82.7325 37.212C82.7325 36.3053 82.8605 35.516 83.1165 34.844C83.3725 34.172 83.7405 33.6547 84.2205 33.292C84.7005 32.9293 85.2552 32.748 85.8845 32.748ZM85.6765 34.188C84.9832 34.188 84.4552 34.4493 84.0925 34.972C83.7405 35.484 83.5645 36.2307 83.5645 37.212C83.5645 38.1933 83.7458 38.9507 84.1085 39.484C84.4818 40.0067 85.0045 40.268 85.6765 40.268C86.3485 40.268 86.8605 40.0067 87.2125 39.484C87.5752 38.9613 87.7565 38.204 87.7565 37.212C87.7565 36.2413 87.5752 35.4947 87.2125 34.972C86.8498 34.4493 86.3378 34.188 85.6765 34.188ZM83.5645 45.02H81.8525V32.972H83.5645V45.02ZM95.8896 33.308C95.8896 33.6707 95.9803 33.964 96.1616 34.188C96.343 34.4013 96.5936 34.572 96.9136 34.7C97.2336 34.8173 97.5856 34.9187 97.9696 35.004C98.3643 35.0787 98.7696 35.1587 99.1856 35.244C99.6016 35.3187 100.002 35.4253 100.386 35.564C100.78 35.692 101.132 35.8733 101.442 36.108C101.762 36.332 102.012 36.6253 102.194 36.988C102.386 37.3507 102.482 37.8093 102.482 38.364C102.482 39.0787 102.3 39.6867 101.938 40.188C101.586 40.6893 101.1 41.068 100.482 41.324C99.863 41.58 99.1536 41.708 98.3536 41.708C97.5536 41.708 96.839 41.5853 96.2096 41.34C95.591 41.0947 95.0736 40.7213 94.6576 40.22C94.2523 39.7187 93.975 39.0893 93.8256 38.332H95.6976C95.8576 38.9507 96.1616 39.4253 96.6096 39.756C97.0576 40.076 97.6443 40.236 98.3696 40.236C99.1163 40.236 99.6816 40.0867 100.066 39.788C100.45 39.4893 100.642 39.0947 100.642 38.604C100.642 38.22 100.551 37.9107 100.37 37.676C100.188 37.4307 99.9376 37.244 99.6176 37.116C99.2976 36.9773 98.9403 36.8653 98.5456 36.78C98.1616 36.684 97.7616 36.5933 97.3456 36.508C96.9296 36.4227 96.5243 36.316 96.1296 36.188C95.7456 36.06 95.3936 35.8893 95.0736 35.676C94.7643 35.452 94.5136 35.164 94.3216 34.812C94.1403 34.46 94.0496 34.0067 94.0496 33.452C94.0496 32.908 94.199 32.4067 94.4976 31.948C94.7963 31.4787 95.2283 31.1053 95.7936 30.828C96.3696 30.5507 97.0736 30.412 97.9056 30.412C98.6203 30.412 99.2763 30.5347 99.8736 30.78C100.482 31.0147 100.988 31.3827 101.394 31.884C101.799 32.3747 102.066 33.02 102.194 33.82H100.29C100.14 33.148 99.8576 32.6573 99.4416 32.348C99.0256 32.0387 98.4976 31.884 97.8576 31.884C97.239 31.884 96.7536 32.0173 96.4016 32.284C96.0603 32.54 95.8896 32.8813 95.8896 33.308ZM104.311 38.956V31.004H106.023V38.86C106.023 39.3507 106.119 39.7133 106.311 39.948C106.514 40.1827 106.908 40.3 107.495 40.3H107.831V41.548C107.746 41.6013 107.602 41.6387 107.399 41.66C107.207 41.692 106.994 41.708 106.759 41.708C105.938 41.708 105.324 41.4787 104.919 41.02C104.514 40.5613 104.311 39.8733 104.311 38.956ZM103.159 34.3V32.972H107.863V34.3H103.159ZM112.717 41.708C111.896 41.708 111.187 41.532 110.589 41.18C109.992 40.8173 109.533 40.3 109.213 39.628C108.893 38.956 108.733 38.1613 108.733 37.244C108.733 36.2733 108.893 35.4573 109.213 34.796C109.544 34.124 110.008 33.6173 110.605 33.276C111.213 32.924 111.917 32.748 112.717 32.748C113.549 32.748 114.264 32.9293 114.861 33.292C115.459 33.6547 115.912 34.172 116.221 34.844C116.541 35.5053 116.701 36.3053 116.701 37.244C116.701 38.1933 116.541 39.004 116.221 39.676C115.901 40.3373 115.443 40.844 114.845 41.196C114.248 41.5373 113.539 41.708 112.717 41.708ZM112.717 40.268C113.443 40.268 113.997 40.0067 114.381 39.484C114.765 38.9613 114.957 38.2147 114.957 37.244C114.957 36.2627 114.765 35.5107 114.381 34.988C113.997 34.4547 113.443 34.188 112.717 34.188C111.992 34.188 111.437 34.4493 111.053 34.972C110.669 35.4947 110.477 36.252 110.477 37.244C110.477 38.2147 110.669 38.9613 111.053 39.484C111.448 40.0067 112.003 40.268 112.717 40.268ZM118.368 41.5V32.972H120.08V41.5H118.368ZM120.08 36.844H119.44C119.483 35.884 119.648 35.1053 119.936 34.508C120.235 33.9 120.603 33.4573 121.04 33.18C121.488 32.892 121.979 32.748 122.512 32.748C122.683 32.748 122.843 32.7693 122.992 32.812C123.141 32.844 123.253 32.8973 123.328 32.972V34.476C123.2 34.4333 123.061 34.4067 122.912 34.396C122.763 34.3747 122.597 34.364 122.416 34.364C122.011 34.364 121.659 34.4227 121.36 34.54C121.072 34.6573 120.832 34.828 120.64 35.052C120.448 35.2653 120.304 35.5267 120.208 35.836C120.123 36.1347 120.08 36.4707 120.08 36.844ZM131.089 36.396L130.113 37.196C130.113 36.2253 129.921 35.4787 129.537 34.956C129.153 34.4333 128.604 34.172 127.889 34.172C127.164 34.172 126.609 34.4387 126.225 34.972C125.852 35.4947 125.665 36.252 125.665 37.244C125.665 38.2147 125.862 38.9667 126.257 39.5C126.662 40.0227 127.233 40.284 127.969 40.284C128.513 40.284 128.966 40.156 129.329 39.9C129.702 39.644 129.964 39.2493 130.113 38.716H131.905C131.67 39.708 131.201 40.4547 130.497 40.956C129.804 41.4573 128.961 41.708 127.969 41.708C127.137 41.708 126.417 41.532 125.809 41.18C125.201 40.8173 124.732 40.3 124.401 39.628C124.081 38.956 123.921 38.1613 123.921 37.244C123.921 36.2733 124.081 35.4573 124.401 34.796C124.732 34.124 125.196 33.6173 125.793 33.276C126.39 32.924 127.089 32.748 127.889 32.748C128.71 32.748 129.414 32.9293 130.001 33.292C130.588 33.644 131.041 34.1453 131.361 34.796C131.681 35.4467 131.841 36.2307 131.841 37.148V37.564H124.625V36.396H131.089Z" fill="black"/>
</svg>
