<svg width="25" height="25" viewBox="0 0 25 25" fill="none" xmlns="http://www.w3.org/2000/svg">
<g clip-path="url(#clip0_65_1451)">
<path d="M12.5 2.34375C10.5716 2.34375 8.68657 2.91558 7.08319 3.98692C5.47982 5.05826 4.23013 6.58101 3.49218 8.36259C2.75422 10.1442 2.56114 12.1046 2.93735 13.9959C3.31355 15.8872 4.24215 17.6245 5.60571 18.988C6.96928 20.3516 8.70656 21.2802 10.5979 21.6564C12.4892 22.0326 14.4496 21.8395 16.2312 21.1016C18.0127 20.3636 19.5355 19.1139 20.6068 17.5106C21.6782 15.9072 22.25 14.0221 22.25 12.0938C22.2473 9.50873 21.2192 7.03036 19.3913 5.20247C17.5634 3.37459 15.085 2.34648 12.5 2.34375ZM16.7806 10.3744L11.5306 15.6244C11.461 15.6941 11.3783 15.7494 11.2872 15.7872C11.1962 15.8249 11.0986 15.8443 11 15.8443C10.9014 15.8443 10.8038 15.8249 10.7128 15.7872C10.6218 15.7494 10.539 15.6941 10.4694 15.6244L8.21938 13.3744C8.07865 13.2336 7.99959 13.0428 7.99959 12.8438C7.99959 12.6447 8.07865 12.4539 8.21938 12.3131C8.36011 12.1724 8.55098 12.0933 8.75 12.0933C8.94903 12.0933 9.1399 12.1724 9.28063 12.3131L11 14.0334L15.7194 9.31312C15.7891 9.24344 15.8718 9.18817 15.9628 9.15045C16.0539 9.11274 16.1515 9.09333 16.25 9.09333C16.3486 9.09333 16.4461 9.11274 16.5372 9.15045C16.6282 9.18817 16.7109 9.24344 16.7806 9.31312C16.8503 9.38281 16.9056 9.46553 16.9433 9.55658C16.981 9.64762 17.0004 9.7452 17.0004 9.84375C17.0004 9.9423 16.981 10.0399 16.9433 10.1309C16.9056 10.222 16.8503 10.3047 16.7806 10.3744Z" fill="white"/>
</g>
<defs>
<clipPath id="clip0_65_1451">
<rect width="24" height="24" fill="white" transform="translate(0.5 0.09375)"/>
</clipPath>
</defs>
</svg>
