<svg width="20" height="21" viewBox="0 0 20 21" fill="none" xmlns="http://www.w3.org/2000/svg">
<g clip-path="url(#clip0_85_703)">
<path d="M10 2.58252C8.39303 2.58252 6.82214 3.05904 5.486 3.95183C4.14985 4.84462 3.10844 6.11357 2.49348 7.59822C1.87852 9.08287 1.71762 10.7165 2.03112 12.2926C2.34463 13.8687 3.11846 15.3165 4.25476 16.4528C5.39106 17.5891 6.8388 18.3629 8.4149 18.6764C9.99099 18.9899 11.6247 18.829 13.1093 18.214C14.594 17.5991 15.8629 16.5577 16.7557 15.2215C17.6485 13.8854 18.125 12.3145 18.125 10.7075C18.1227 8.55333 17.266 6.48803 15.7427 4.96479C14.2195 3.44155 12.1542 2.58479 10 2.58252ZM13.5672 9.27471L9.19219 13.6497C9.13415 13.7078 9.06522 13.7539 8.98934 13.7854C8.91347 13.8168 8.83214 13.833 8.75 13.833C8.66787 13.833 8.58654 13.8168 8.51067 13.7854C8.43479 13.7539 8.36586 13.7078 8.30782 13.6497L6.43282 11.7747C6.31554 11.6574 6.24966 11.4984 6.24966 11.3325C6.24966 11.1667 6.31554 11.0076 6.43282 10.8903C6.55009 10.7731 6.70915 10.7072 6.875 10.7072C7.04086 10.7072 7.19992 10.7731 7.31719 10.8903L8.75 12.3239L12.6828 8.39033C12.7409 8.33226 12.8098 8.2862 12.8857 8.25477C12.9616 8.22335 13.0429 8.20717 13.125 8.20717C13.2071 8.20717 13.2884 8.22335 13.3643 8.25477C13.4402 8.2862 13.5091 8.33226 13.5672 8.39033C13.6253 8.4484 13.6713 8.51734 13.7027 8.59321C13.7342 8.66908 13.7504 8.7504 13.7504 8.83252C13.7504 8.91464 13.7342 8.99596 13.7027 9.07183C13.6713 9.1477 13.6253 9.21664 13.5672 9.27471Z" fill="#39F228"/>
</g>
<defs>
<clipPath id="clip0_85_703">
<rect width="20" height="20" fill="white" transform="translate(0 0.70752)"/>
</clipPath>
</defs>
</svg>
