<svg width="25" height="25" viewBox="0 0 25 25" fill="none" xmlns="http://www.w3.org/2000/svg">
<g clip-path="url(#clip0_85_1540)">
<path d="M12.5 2.94092C10.5716 2.94092 8.68657 3.51275 7.08319 4.58409C5.47982 5.65543 4.23013 7.17817 3.49218 8.95975C2.75422 10.7413 2.56114 12.7017 2.93735 14.593C3.31355 16.4844 4.24215 18.2216 5.60571 19.5852C6.96928 20.9488 8.70656 21.8774 10.5979 22.2536C12.4892 22.6298 14.4496 22.4367 16.2312 21.6987C18.0127 20.9608 19.5355 19.7111 20.6068 18.1077C21.6782 16.5043 22.25 14.6193 22.25 12.6909C22.2473 10.1059 21.2192 7.62753 19.3913 5.79964C17.5634 3.97175 15.085 2.94365 12.5 2.94092ZM16.7806 10.9715L11.5306 16.2215C11.461 16.2913 11.3783 16.3466 11.2872 16.3843C11.1962 16.4221 11.0986 16.4415 11 16.4415C10.9014 16.4415 10.8038 16.4221 10.7128 16.3843C10.6218 16.3466 10.539 16.2913 10.4694 16.2215L8.21938 13.9715C8.07865 13.8308 7.99959 13.6399 7.99959 13.4409C7.99959 13.2419 8.07865 13.051 8.21938 12.9103C8.36011 12.7696 8.55098 12.6905 8.75 12.6905C8.94903 12.6905 9.1399 12.7696 9.28063 12.9103L11 14.6306L15.7194 9.91029C15.7891 9.84061 15.8718 9.78533 15.9628 9.74762C16.0539 9.70991 16.1515 9.6905 16.25 9.6905C16.3486 9.6905 16.4461 9.70991 16.5372 9.74762C16.6282 9.78533 16.7109 9.84061 16.7806 9.91029C16.8503 9.97998 16.9056 10.0627 16.9433 10.1537C16.981 10.2448 17.0004 10.3424 17.0004 10.4409C17.0004 10.5395 16.981 10.637 16.9433 10.7281C16.9056 10.8191 16.8503 10.9019 16.7806 10.9715Z" fill="#F3343E"/>
</g>
<defs>
<clipPath id="clip0_85_1540">
<rect width="24" height="24" fill="white" transform="translate(0.5 0.690918)"/>
</clipPath>
</defs>
</svg>
