<svg width="131" height="47" viewBox="0 0 131 47" fill="none" xmlns="http://www.w3.org/2000/svg">
<g clip-path="url(#clip0_85_722)">
<path d="M129.84 29.0395C129.704 27.7945 129.946 25.0655 128.641 24.4395C126.877 23.5925 126.443 25.6435 126.154 26.9575C125.587 29.5405 126.431 33.6515 125.124 35.8475C113.17 19.3655 96.3466 7.89647 76.5016 3.22047C56.7636 -1.43053 33.3396 -0.187532 16.6196 12.5405C8.43659 18.7705 1.99758 27.1955 0.361584 37.6185C0.221584 38.5135 -0.677416 42.9025 1.12958 42.5295C2.07058 42.3355 3.16958 36.6895 3.52258 35.7115C5.35758 30.6305 7.97158 26.1575 11.5616 22.1385C23.7946 8.44547 43.6746 3.77947 61.2896 5.12547C72.9596 6.01747 84.6846 9.54947 95.0376 15.1145C100.382 17.9865 105.565 21.4325 110.062 25.5345C113.855 28.9925 120.229 34.5355 121.82 39.5995C117.21 39.4115 112.624 34.7055 108.05 33.8365C105.627 33.3765 103.068 34.8195 104.988 37.3035C106.545 39.3175 110.954 40.2165 113.239 41.1385C115.789 42.1665 118.358 43.1065 120.992 43.8915C122.925 44.4675 126.831 46.5095 128.71 45.5035C132.032 43.7235 130.086 32.2425 129.84 29.0395C129.943 30.3755 129.698 27.7375 129.84 29.0395Z" fill="url(#paint0_linear_85_722)"/>
</g>
<defs>
<linearGradient id="paint0_linear_85_722" x1="131.475" y1="45.2945" x2="8.68958" y2="26.5585" gradientUnits="userSpaceOnUse">
<stop stop-color="white"/>
<stop offset="1" stop-color="white" stop-opacity="0"/>
</linearGradient>
<clipPath id="clip0_85_722">
<rect width="131" height="46" fill="white" transform="translate(0 0.70752)"/>
</clipPath>
</defs>
</svg>
