<svg width="78" height="31" viewBox="0 0 78 31" fill="none" xmlns="http://www.w3.org/2000/svg">
<g clip-path="url(#clip0_1_523)">
<path d="M18.5147 0.70752C15.4686 0.70752 12.5473 1.91757 10.3934 4.07148L3.36396 11.1009C1.21005 13.2548 0 16.1761 0 19.2222C0 25.5654 5.14214 30.7075 11.4853 30.7075C14.5314 30.7075 17.4527 29.4974 19.6066 27.3435L24.4689 22.4812C24.4689 22.4811 24.469 22.4813 24.4689 22.4812L38.636 8.31412C39.6647 7.28543 41.0599 6.70752 42.5147 6.70752C44.9503 6.70752 47.0152 8.29493 47.7311 10.4916L52.2022 6.02048C50.1625 2.82586 46.586 0.70752 42.5147 0.70752C39.4686 0.70752 36.5473 1.91757 34.3934 4.07148L15.364 23.1009C14.3353 24.1296 12.9401 24.7075 11.4853 24.7075C8.45584 24.7075 6 22.2517 6 19.2222C6 17.7674 6.57791 16.3722 7.6066 15.3435L14.636 8.31412C15.6647 7.28543 17.0599 6.70752 18.5147 6.70752C20.9504 6.70752 23.0152 8.295 23.7311 10.4917L28.2023 6.02059C26.1626 2.82592 22.5861 0.70752 18.5147 0.70752Z" fill="white"/>
<path d="M39.3636 23.1009C38.3349 24.1296 36.9397 24.7075 35.4849 24.7075C33.0496 24.7075 30.985 23.1205 30.2689 20.9242L25.7979 25.3952C27.8377 28.5894 31.4139 30.7075 35.4849 30.7075C38.531 30.7075 41.4524 29.4974 43.6063 27.3435L62.6357 8.31412C63.6644 7.28543 65.0596 6.70752 66.5144 6.70752C69.5438 6.70752 71.9996 9.16336 71.9996 12.1928C71.9996 13.6476 71.4218 15.0428 70.3931 16.0715L63.3636 23.1009C62.3349 24.1296 60.9397 24.7075 59.4849 24.7075C57.0494 24.7075 54.9847 23.1202 54.2687 20.9237L49.7977 25.3948C51.8374 28.5893 55.4137 30.7075 59.4849 30.7075C62.531 30.7075 65.4523 29.4974 67.6062 27.3435L74.6357 20.3141C76.7896 18.1602 77.9996 15.2389 77.9996 12.1928C77.9996 5.84966 72.8576 0.70752 66.5144 0.70752C63.4683 0.70752 60.547 1.91757 58.3931 4.07148L39.3636 23.1009Z" fill="white"/>
</g>
<defs>
<clipPath id="clip0_1_523">
<rect width="78" height="30" fill="white" transform="translate(0 0.70752)"/>
</clipPath>
</defs>
</svg>
