<svg width="44" height="17" viewBox="0 0 44 17" fill="none" xmlns="http://www.w3.org/2000/svg">
<g clip-path="url(#clip0_1_643)">
<path d="M10.4442 0.0384521C8.72588 0.0384521 7.07796 0.721044 5.86294 1.93607L1.89762 5.9014C0.682592 7.11642 0 8.76433 0 10.4826C0 14.0609 2.90069 16.9615 6.47889 16.9615C8.1972 16.9615 9.84511 16.2789 11.0601 15.0639L13.803 12.3211C13.803 12.321 13.803 12.3211 13.803 12.3211L21.7947 4.32935C22.375 3.74907 23.162 3.42307 23.9827 3.42307C25.3566 3.42307 26.5214 4.31853 26.9252 5.55767L29.4474 3.03551C28.2968 1.23341 26.2793 0.0384521 23.9827 0.0384521C22.2643 0.0384521 20.6164 0.721044 19.4014 1.93607L8.66687 12.6706C8.08658 13.2509 7.29954 13.5769 6.47889 13.5769C4.76996 13.5769 3.38462 12.1916 3.38462 10.4826C3.38462 9.66198 3.71062 8.87495 4.2909 8.29466L8.2562 4.32935C8.8365 3.74907 9.62353 3.42307 10.4442 3.42307C11.8182 3.42307 12.9829 4.31857 13.3868 5.55775L15.909 3.03557C14.7584 1.23345 12.7409 0.0384521 10.4442 0.0384521Z" fill="black"/>
<path d="M22.2052 12.6706C21.6249 13.2509 20.8379 13.5769 20.0173 13.5769C18.6435 13.5769 17.4788 12.6817 17.0748 11.4427L14.5527 13.9648C15.7034 15.7667 17.7208 16.9615 20.0173 16.9615C21.7356 16.9615 23.3835 16.2789 24.5985 15.0639L35.333 4.32935C35.9133 3.74907 36.7004 3.42307 37.521 3.42307C39.23 3.42307 40.6153 4.80841 40.6153 6.51734C40.6153 7.338 40.2893 8.12503 39.709 8.70532L35.7437 12.6706C35.1634 13.2509 34.3764 13.5769 33.5557 13.5769C32.1818 13.5769 31.0171 12.6815 30.6132 11.4425L28.0911 13.9646C29.2417 15.7666 31.2591 16.9615 33.5557 16.9615C35.274 16.9615 36.9219 16.2789 38.137 15.0639L42.1023 11.0986C43.3173 9.88356 43.9999 8.23565 43.9999 6.51734C43.9999 2.93915 41.0992 0.0384521 37.521 0.0384521C35.8027 0.0384521 34.1548 0.721044 32.9398 1.93607L22.2052 12.6706Z" fill="black"/>
</g>
<defs>
<clipPath id="clip0_1_643">
<rect width="44" height="16.9231" fill="white" transform="translate(0 0.0384521)"/>
</clipPath>
</defs>
</svg>
