<svg width="123" height="68" viewBox="0 0 123 68" fill="none" xmlns="http://www.w3.org/2000/svg">
<path d="M116.742 63.9529C116.121 65.0409 115.257 67.6406 113.811 67.6953C111.855 67.77 112.274 65.7157 112.532 64.3953C113.04 61.8001 115.451 58.365 115.126 55.8302C97.5985 66.1904 77.6002 70.0137 57.5341 66.4023C37.5761 62.8106 16.5835 52.3447 6.31301 34.0123C1.2868 25.0395 -1.26569 14.7474 1.38321 4.53473C1.6111 3.65799 2.53379 -0.726096 4.04291 0.335481C4.82888 0.888079 3.58922 6.50487 3.52367 7.54256C3.1841 12.9341 3.80119 18.078 5.49435 23.194C11.2645 40.6253 27.6434 52.8203 44.3381 58.5985C55.3985 62.4264 67.5604 63.8544 79.2731 62.8712C85.3187 62.3642 91.4452 61.2666 97.2035 59.2941C102.06 57.632 110.114 55.0849 113.589 51.0729C109.285 49.41 103.205 51.9012 98.6631 50.8773C96.2572 50.3347 94.4843 47.9922 97.2345 46.4779C99.4646 45.2503 103.867 46.1809 106.33 46.2449C109.079 46.3171 111.81 46.4776 114.538 46.8061C116.541 47.0473 120.937 46.7292 122.26 48.4001C124.599 51.3555 118.243 61.1126 116.742 63.9529C117.368 62.7684 116.093 65.0908 116.742 63.9529Z" fill="url(#paint0_linear_59_570)"/>
<defs>
<linearGradient id="paint0_linear_59_570" x1="124.713" y1="49.6926" x2="4.61948" y2="17.996" gradientUnits="userSpaceOnUse">
<stop/>
<stop offset="1" stop-opacity="0"/>
</linearGradient>
</defs>
</svg>
