<svg width="172" height="56" viewBox="0 0 172 56" fill="none" xmlns="http://www.w3.org/2000/svg">
<rect x="0.5" y="0.5" width="171" height="55" rx="7.5" fill="white"/>
<rect x="0.5" y="0.5" width="171" height="55" rx="7.5" stroke="#E3E3E3"/>
<path d="M46.2717 27.4886L50.2143 23.5459L37.4797 16.3886C36.6357 15.9326 35.845 15.8686 35.1517 16.3672L46.2717 27.4886ZM50.8863 32.1046L54.985 29.7992C55.785 29.3512 56.2237 28.7166 56.2237 28.0126C56.2237 27.3099 55.785 26.6739 54.9863 26.2259L51.2757 24.1419L47.0983 28.3179L50.8863 32.1046ZM34.4663 17.3366C34.381 17.5992 34.333 17.8926 34.333 18.2139V37.8206C34.333 38.3286 34.445 38.7659 34.6477 39.1139L45.4437 28.3166L34.4663 17.3366ZM46.2717 29.1432L35.5357 39.8806C35.7419 39.9606 35.9619 40.0006 36.1957 40.0006C36.6135 40.0006 37.0437 39.8779 37.4863 39.6326L49.8263 32.7032L46.2717 29.1432Z" fill="black"/>
<path d="M77.0745 15.764H75.6705C75.5265 15.3 75.2745 14.944 74.9145 14.696C74.5545 14.44 74.1305 14.312 73.6425 14.312C73.1465 14.312 72.7225 14.44 72.3705 14.696C72.0185 14.944 71.7465 15.3 71.5545 15.764C71.3625 16.228 71.2665 16.784 71.2665 17.432C71.2665 18.08 71.3625 18.636 71.5545 19.1C71.7465 19.556 72.0225 19.908 72.3825 20.156C72.7505 20.404 73.1825 20.528 73.6785 20.528C74.0545 20.528 74.3945 20.452 74.6985 20.3C75.0025 20.14 75.2505 19.896 75.4425 19.568C75.6345 19.24 75.7465 18.816 75.7785 18.296H76.4385C76.4385 19.064 76.3105 19.696 76.0545 20.192C75.8065 20.688 75.4665 21.056 75.0345 21.296C74.6025 21.536 74.1105 21.656 73.5585 21.656C72.8145 21.656 72.1665 21.488 71.6145 21.152C71.0705 20.808 70.6465 20.32 70.3425 19.688C70.0465 19.056 69.8985 18.304 69.8985 17.432C69.8985 16.56 70.0505 15.808 70.3545 15.176C70.6585 14.536 71.0905 14.044 71.6505 13.7C72.2185 13.356 72.8945 13.184 73.6785 13.184C74.2225 13.184 74.7265 13.28 75.1905 13.472C75.6625 13.664 76.0625 13.956 76.3905 14.348C76.7185 14.732 76.9465 15.204 77.0745 15.764ZM77.0625 21.5H76.0905L75.7785 18.296H73.8465V17.252H77.0625V21.5ZM83.6272 17.672L82.8952 18.272C82.8952 17.544 82.7512 16.984 82.4632 16.592C82.1752 16.2 81.7632 16.004 81.2272 16.004C80.6832 16.004 80.2672 16.204 79.9792 16.604C79.6992 16.996 79.5592 17.564 79.5592 18.308C79.5592 19.036 79.7072 19.6 80.0032 20C80.3072 20.392 80.7352 20.588 81.2872 20.588C81.6952 20.588 82.0352 20.492 82.3072 20.3C82.5872 20.108 82.7832 19.812 82.8952 19.412H84.2392C84.0632 20.156 83.7112 20.716 83.1832 21.092C82.6632 21.468 82.0312 21.656 81.2872 21.656C80.6632 21.656 80.1232 21.524 79.6672 21.26C79.2112 20.988 78.8592 20.6 78.6112 20.096C78.3712 19.592 78.2512 18.996 78.2512 18.308C78.2512 17.58 78.3712 16.968 78.6112 16.472C78.8592 15.968 79.2072 15.588 79.6552 15.332C80.1032 15.068 80.6272 14.936 81.2272 14.936C81.8432 14.936 82.3712 15.072 82.8112 15.344C83.2512 15.608 83.5912 15.984 83.8312 16.472C84.0712 16.96 84.1912 17.548 84.1912 18.236V18.548H78.7792V17.672H83.6272ZM85.6453 19.592V13.628H86.9293V19.52C86.9293 19.888 87.0013 20.16 87.1453 20.336C87.2973 20.512 87.5933 20.6 88.0333 20.6H88.2853V21.536C88.2213 21.576 88.1133 21.604 87.9613 21.62C87.8173 21.644 87.6573 21.656 87.4813 21.656C86.8653 21.656 86.4053 21.484 86.1013 21.14C85.7973 20.796 85.6453 20.28 85.6453 19.592ZM84.7813 16.1V15.104H88.3093V16.1H84.7813ZM91.6296 21.5V15.104H92.9136V21.5H91.6296ZM91.6296 14.312V12.86H92.9136V14.312H91.6296ZM94.6335 19.592V13.628H95.9175V19.52C95.9175 19.888 95.9895 20.16 96.1335 20.336C96.2855 20.512 96.5815 20.6 97.0215 20.6H97.2735V21.536C97.2095 21.576 97.1015 21.604 96.9495 21.62C96.8055 21.644 96.6455 21.656 96.4695 21.656C95.8535 21.656 95.3935 21.484 95.0895 21.14C94.7855 20.796 94.6335 20.28 94.6335 19.592ZM93.7695 16.1V15.104H97.2975V16.1H93.7695ZM103.294 21.656C102.678 21.656 102.146 21.524 101.698 21.26C101.25 20.988 100.906 20.6 100.666 20.096C100.426 19.592 100.306 18.996 100.306 18.308C100.306 17.58 100.426 16.968 100.666 16.472C100.914 15.968 101.262 15.588 101.71 15.332C102.166 15.068 102.694 14.936 103.294 14.936C103.918 14.936 104.454 15.072 104.902 15.344C105.35 15.616 105.69 16.004 105.922 16.508C106.162 17.004 106.282 17.604 106.282 18.308C106.282 19.02 106.162 19.628 105.922 20.132C105.682 20.628 105.338 21.008 104.89 21.272C104.442 21.528 103.91 21.656 103.294 21.656ZM103.294 20.576C103.838 20.576 104.254 20.38 104.542 19.988C104.83 19.596 104.974 19.036 104.974 18.308C104.974 17.572 104.83 17.008 104.542 16.616C104.254 16.216 103.838 16.016 103.294 16.016C102.75 16.016 102.334 16.212 102.046 16.604C101.758 16.996 101.614 17.564 101.614 18.308C101.614 19.036 101.758 19.596 102.046 19.988C102.342 20.38 102.758 20.576 103.294 20.576ZM107.532 21.5V15.104H108.816V21.5H107.532ZM108.816 17.744H108.312C108.352 17.12 108.476 16.6 108.684 16.184C108.9 15.768 109.184 15.456 109.536 15.248C109.888 15.04 110.292 14.936 110.748 14.936C111.196 14.936 111.58 15.024 111.9 15.2C112.22 15.368 112.468 15.624 112.644 15.968C112.82 16.304 112.908 16.724 112.908 17.228V21.5H111.636V17.492C111.636 17.18 111.588 16.916 111.492 16.7C111.396 16.476 111.256 16.304 111.072 16.184C110.888 16.064 110.648 16.004 110.352 16.004C110.112 16.004 109.896 16.056 109.704 16.16C109.512 16.256 109.348 16.384 109.212 16.544C109.084 16.704 108.984 16.888 108.912 17.096C108.848 17.304 108.816 17.52 108.816 17.744Z" fill="black"/>
<path d="M70.3868 41.5V30.62H72.1788V41.5H70.3868ZM74.2908 37.644H71.6828V36.204H74.1948C74.9414 36.204 75.5174 36.0173 75.9228 35.644C76.3281 35.2707 76.5308 34.7693 76.5308 34.14C76.5308 33.5 76.3281 32.9933 75.9228 32.62C75.5174 32.2467 74.9574 32.06 74.2428 32.06H71.6828V30.62H74.2588C75.1121 30.62 75.8428 30.764 76.4508 31.052C77.0694 31.3293 77.5441 31.7293 77.8748 32.252C78.2054 32.764 78.3708 33.388 78.3708 34.124C78.3708 35.244 77.9974 36.1133 77.2508 36.732C76.5148 37.34 75.5281 37.644 74.2908 37.644ZM80.0244 41.5V29.98H81.7364V41.5H80.0244ZM85.4216 35.756H83.7096C83.8056 35.1267 84.0083 34.588 84.3176 34.14C84.627 33.692 85.043 33.3507 85.5656 33.116C86.0883 32.8707 86.7016 32.748 87.4056 32.748C88.1736 32.748 88.8136 32.892 89.3256 33.18C89.8483 33.4573 90.2376 33.8467 90.4936 34.348C90.7496 34.8493 90.8776 35.4307 90.8776 36.092V39.42C90.8776 39.932 90.899 40.348 90.9416 40.668C90.995 40.988 91.0696 41.2653 91.1656 41.5H89.3736C89.2776 41.2867 89.219 41.02 89.1976 40.7C89.1763 40.38 89.1656 40.0547 89.1656 39.724V36.108C89.1656 35.4893 89.011 35.0147 88.7016 34.684C88.403 34.3533 87.9283 34.188 87.2776 34.188C86.723 34.188 86.291 34.332 85.9816 34.62C85.683 34.8973 85.4963 35.276 85.4216 35.756ZM89.4056 36.3V37.468C88.531 37.468 87.8163 37.5107 87.2616 37.596C86.707 37.6813 86.275 37.804 85.9656 37.964C85.6563 38.1133 85.443 38.2947 85.3256 38.508C85.2083 38.7107 85.1496 38.94 85.1496 39.196C85.1496 39.5587 85.2883 39.8467 85.5656 40.06C85.843 40.2627 86.2056 40.364 86.6536 40.364C87.1336 40.364 87.5603 40.252 87.9336 40.028C88.3176 39.7933 88.6163 39.484 88.8296 39.1C89.0536 38.716 89.1656 38.3 89.1656 37.852H89.9336C89.891 38.5347 89.7576 39.1213 89.5336 39.612C89.3096 40.1027 89.0216 40.5027 88.6696 40.812C88.3283 41.1213 87.955 41.3507 87.5496 41.5C87.1443 41.6387 86.739 41.708 86.3336 41.708C85.7576 41.708 85.251 41.6173 84.8136 41.436C84.3763 41.2547 84.035 40.9827 83.7896 40.62C83.5443 40.2573 83.4216 39.804 83.4216 39.26C83.4216 38.6733 83.5816 38.172 83.9016 37.756C84.2216 37.34 84.7016 37.02 85.3416 36.796C85.939 36.5933 86.5576 36.46 87.1976 36.396C87.8376 36.332 88.5736 36.3 89.4056 36.3ZM93.398 45.228C93.2167 45.228 93.0353 45.2067 92.854 45.164C92.6833 45.132 92.55 45.1 92.454 45.068V43.756H92.918C93.1527 43.756 93.3607 43.7347 93.542 43.692C93.7233 43.66 93.8887 43.5747 94.038 43.436C94.1873 43.308 94.3367 43.1107 94.486 42.844C94.646 42.588 94.8167 42.236 94.998 41.788L95.254 41.196L91.83 32.972H93.67L95.782 38.284L96.246 39.788H96.038L96.518 38.284L98.566 32.972H100.31L96.438 42.492C96.2247 43.0253 96.0113 43.468 95.798 43.82C95.5953 44.172 95.382 44.4493 95.158 44.652C94.934 44.8653 94.678 45.0147 94.39 45.1C94.1127 45.1853 93.782 45.228 93.398 45.228ZM106.155 33.308C106.155 33.6707 106.246 33.964 106.427 34.188C106.609 34.4013 106.859 34.572 107.179 34.7C107.499 34.8173 107.851 34.9187 108.235 35.004C108.63 35.0787 109.035 35.1587 109.451 35.244C109.867 35.3187 110.267 35.4253 110.651 35.564C111.046 35.692 111.398 35.8733 111.707 36.108C112.027 36.332 112.278 36.6253 112.459 36.988C112.651 37.3507 112.747 37.8093 112.747 38.364C112.747 39.0787 112.566 39.6867 112.203 40.188C111.851 40.6893 111.366 41.068 110.747 41.324C110.129 41.58 109.419 41.708 108.619 41.708C107.819 41.708 107.105 41.5853 106.475 41.34C105.857 41.0947 105.339 40.7213 104.923 40.22C104.518 39.7187 104.241 39.0893 104.091 38.332H105.963C106.123 38.9507 106.427 39.4253 106.875 39.756C107.323 40.076 107.91 40.236 108.635 40.236C109.382 40.236 109.947 40.0867 110.331 39.788C110.715 39.4893 110.907 39.0947 110.907 38.604C110.907 38.22 110.817 37.9107 110.635 37.676C110.454 37.4307 110.203 37.244 109.883 37.116C109.563 36.9773 109.206 36.8653 108.811 36.78C108.427 36.684 108.027 36.5933 107.611 36.508C107.195 36.4227 106.79 36.316 106.395 36.188C106.011 36.06 105.659 35.8893 105.339 35.676C105.03 35.452 104.779 35.164 104.587 34.812C104.406 34.46 104.315 34.0067 104.315 33.452C104.315 32.908 104.465 32.4067 104.763 31.948C105.062 31.4787 105.494 31.1053 106.059 30.828C106.635 30.5507 107.339 30.412 108.171 30.412C108.886 30.412 109.542 30.5347 110.139 30.78C110.747 31.0147 111.254 31.3827 111.659 31.884C112.065 32.3747 112.331 33.02 112.459 33.82H110.555C110.406 33.148 110.123 32.6573 109.707 32.348C109.291 32.0387 108.763 31.884 108.123 31.884C107.505 31.884 107.019 32.0173 106.667 32.284C106.326 32.54 106.155 32.8813 106.155 33.308ZM114.577 38.956V31.004H116.289V38.86C116.289 39.3507 116.385 39.7133 116.577 39.948C116.779 40.1827 117.174 40.3 117.761 40.3H118.097V41.548C118.011 41.6013 117.867 41.6387 117.665 41.66C117.473 41.692 117.259 41.708 117.025 41.708C116.203 41.708 115.59 41.4787 115.185 41.02C114.779 40.5613 114.577 39.8733 114.577 38.956ZM113.425 34.3V32.972H118.129V34.3H113.425ZM122.983 41.708C122.162 41.708 121.452 41.532 120.855 41.18C120.258 40.8173 119.799 40.3 119.479 39.628C119.159 38.956 118.999 38.1613 118.999 37.244C118.999 36.2733 119.159 35.4573 119.479 34.796C119.81 34.124 120.274 33.6173 120.871 33.276C121.479 32.924 122.183 32.748 122.983 32.748C123.815 32.748 124.53 32.9293 125.127 33.292C125.724 33.6547 126.178 34.172 126.487 34.844C126.807 35.5053 126.967 36.3053 126.967 37.244C126.967 38.1933 126.807 39.004 126.487 39.676C126.167 40.3373 125.708 40.844 125.111 41.196C124.514 41.5373 123.804 41.708 122.983 41.708ZM122.983 40.268C123.708 40.268 124.263 40.0067 124.647 39.484C125.031 38.9613 125.223 38.2147 125.223 37.244C125.223 36.2627 125.031 35.5107 124.647 34.988C124.263 34.4547 123.708 34.188 122.983 34.188C122.258 34.188 121.703 34.4493 121.319 34.972C120.935 35.4947 120.743 36.252 120.743 37.244C120.743 38.2147 120.935 38.9613 121.319 39.484C121.714 40.0067 122.268 40.268 122.983 40.268ZM128.634 41.5V32.972H130.346V41.5H128.634ZM130.346 36.844H129.706C129.748 35.884 129.914 35.1053 130.202 34.508C130.5 33.9 130.868 33.4573 131.306 33.18C131.754 32.892 132.244 32.748 132.778 32.748C132.948 32.748 133.108 32.7693 133.258 32.812C133.407 32.844 133.519 32.8973 133.594 32.972V34.476C133.466 34.4333 133.327 34.4067 133.178 34.396C133.028 34.3747 132.863 34.364 132.682 34.364C132.276 34.364 131.924 34.4227 131.626 34.54C131.338 34.6573 131.098 34.828 130.906 35.052C130.714 35.2653 130.57 35.5267 130.474 35.836C130.388 36.1347 130.346 36.4707 130.346 36.844ZM141.355 36.396L140.379 37.196C140.379 36.2253 140.187 35.4787 139.803 34.956C139.419 34.4333 138.869 34.172 138.155 34.172C137.429 34.172 136.875 34.4387 136.491 34.972C136.117 35.4947 135.931 36.252 135.931 37.244C135.931 38.2147 136.128 38.9667 136.523 39.5C136.928 40.0227 137.499 40.284 138.235 40.284C138.779 40.284 139.232 40.156 139.595 39.9C139.968 39.644 140.229 39.2493 140.379 38.716H142.171C141.936 39.708 141.467 40.4547 140.763 40.956C140.069 41.4573 139.227 41.708 138.235 41.708C137.403 41.708 136.683 41.532 136.075 41.18C135.467 40.8173 134.997 40.3 134.667 39.628C134.347 38.956 134.187 38.1613 134.187 37.244C134.187 36.2733 134.347 35.4573 134.667 34.796C134.997 34.124 135.461 33.6173 136.059 33.276C136.656 32.924 137.355 32.748 138.155 32.748C138.976 32.748 139.68 32.9293 140.267 33.292C140.853 33.644 141.307 34.1453 141.627 34.796C141.947 35.4467 142.107 36.2307 142.107 37.148V37.564H134.891V36.396H141.355Z" fill="black"/>
</svg>
