<svg width="32" height="33" viewBox="0 0 32 33" fill="none" xmlns="http://www.w3.org/2000/svg">
<g clip-path="url(#clip0_85_1270)">
<path d="M23.8887 14.9725C26.8887 11.9725 27.0762 8.40377 26.9825 6.81252C26.9669 6.57 26.8635 6.34145 26.6917 6.1696C26.5198 5.99776 26.2913 5.89437 26.0487 5.87877C24.4575 5.78502 20.8912 5.97002 17.8887 8.97252L10 16.8613L16 22.8613L23.8887 14.9725Z" stroke="white" stroke-width="2" stroke-linecap="round" stroke-linejoin="round"/>
<path d="M17.0003 9.86133H9.29407C9.02921 9.86145 8.77521 9.96665 8.58782 10.1538L4.29407 14.4476C4.16298 14.579 4.07103 14.7442 4.02853 14.9249C3.98602 15.1056 3.99464 15.2945 4.05341 15.4706C4.11218 15.6466 4.21878 15.8028 4.36129 15.9217C4.5038 16.0406 4.67659 16.1175 4.86032 16.1438L10.0003 16.8613" stroke="white" stroke-width="2" stroke-linecap="round" stroke-linejoin="round"/>
<path d="M23 15.8613V23.5676C22.9999 23.8324 22.8947 24.0864 22.7075 24.2738L18.4137 28.5676C18.2824 28.6987 18.1171 28.7906 17.9364 28.8331C17.7558 28.8756 17.5668 28.867 17.3908 28.8082C17.2147 28.7495 17.0585 28.6429 16.9396 28.5004C16.8207 28.3578 16.7438 28.1851 16.7175 28.0013L16 22.8613" stroke="white" stroke-width="2" stroke-linecap="round" stroke-linejoin="round"/>
<path d="M11.82 24.3385C11.3362 25.3998 9.70625 27.861 5 27.861C5 23.1548 7.46125 21.5248 8.5225 21.041" stroke="white" stroke-width="2" stroke-linecap="round" stroke-linejoin="round"/>
</g>
<defs>
<clipPath id="clip0_85_1270">
<rect width="32" height="32" fill="white" transform="translate(0 0.861328)"/>
</clipPath>
</defs>
</svg>
