<svg width="21" height="21" viewBox="0 0 21 21" fill="none" xmlns="http://www.w3.org/2000/svg">
<g clip-path="url(#clip0_85_1607)">
<path d="M15.4305 9.09568C17.3055 7.22068 17.4227 4.99021 17.3641 3.99568C17.3543 3.8441 17.2897 3.70126 17.1823 3.59386C17.0749 3.48645 16.932 3.42184 16.7805 3.41209C15.7859 3.35349 13.557 3.46912 11.6805 5.34568L6.75 10.2761L10.5 14.0261L15.4305 9.09568Z" stroke="white" stroke-width="1.25" stroke-linecap="round" stroke-linejoin="round"/>
<path d="M11.125 5.90118H6.30855C6.14301 5.90126 5.98426 5.96701 5.86714 6.084L3.18355 8.76759C3.10162 8.84971 3.04415 8.953 3.01759 9.06592C2.99102 9.17884 2.99641 9.29692 3.03314 9.40695C3.06987 9.51698 3.1365 9.61462 3.22556 9.68894C3.31463 9.76325 3.42263 9.81132 3.53746 9.82775L6.74996 10.2762" stroke="white" stroke-width="1.25" stroke-linecap="round" stroke-linejoin="round"/>
<path d="M14.875 9.65118V14.4676C14.8749 14.6331 14.8092 14.7919 14.6922 14.909L12.0086 17.5926C11.9265 17.6745 11.8232 17.732 11.7103 17.7586C11.5973 17.7851 11.4793 17.7797 11.3692 17.743C11.2592 17.7063 11.1616 17.6396 11.0872 17.5506C11.0129 17.4615 10.9649 17.3535 10.9484 17.2387L10.5 14.0262" stroke="white" stroke-width="1.25" stroke-linecap="round" stroke-linejoin="round"/>
<path d="M7.8875 14.9496C7.58516 15.6129 6.56641 17.1512 3.625 17.1512C3.625 14.2098 5.16328 13.191 5.82656 12.8887" stroke="white" stroke-width="1.25" stroke-linecap="round" stroke-linejoin="round"/>
</g>
<defs>
<clipPath id="clip0_85_1607">
<rect width="20" height="20" fill="white" transform="translate(0.5 0.276184)"/>
</clipPath>
</defs>
</svg>
