<svg width="16" height="17" viewBox="0 0 16 17" fill="none" xmlns="http://www.w3.org/2000/svg">
<g clip-path="url(#clip0_1_558)">
<path d="M8 11.2075C9.38071 11.2075 10.5 10.0882 10.5 8.70752C10.5 7.32681 9.38071 6.20752 8 6.20752C6.61929 6.20752 5.5 7.32681 5.5 8.70752C5.5 10.0882 6.61929 11.2075 8 11.2075Z" stroke="white" stroke-miterlimit="10"/>
<path d="M11 2.70752H5C3.34315 2.70752 2 4.05067 2 5.70752V11.7075C2 13.3644 3.34315 14.7075 5 14.7075H11C12.6569 14.7075 14 13.3644 14 11.7075V5.70752C14 4.05067 12.6569 2.70752 11 2.70752Z" stroke="white" stroke-linecap="round" stroke-linejoin="round"/>
<path d="M11.25 6.20752C11.6642 6.20752 12 5.87173 12 5.45752C12 5.04331 11.6642 4.70752 11.25 4.70752C10.8358 4.70752 10.5 5.04331 10.5 5.45752C10.5 5.87173 10.8358 6.20752 11.25 6.20752Z" fill="white"/>
</g>
<defs>
<clipPath id="clip0_1_558">
<rect width="16" height="16" fill="white" transform="translate(0 0.70752)"/>
</clipPath>
</defs>
</svg>
