<svg width="16" height="17" viewBox="0 0 16 17" fill="none" xmlns="http://www.w3.org/2000/svg">
<g clip-path="url(#clip0_1_553)">
<path d="M10 8.70752L7 6.70752V10.7075L10 8.70752Z" stroke="white" stroke-linecap="round" stroke-linejoin="round"/>
<path d="M1.5 8.70758C1.5 10.577 1.69187 11.6732 1.83812 12.237C1.8768 12.3903 1.95129 12.5323 2.05548 12.6512C2.15967 12.7702 2.2906 12.8628 2.4375 12.9213C4.5325 13.7295 8 13.7076 8 13.7076C8 13.7076 11.4675 13.7295 13.5625 12.9213C13.7099 12.8631 13.8413 12.7707 13.9459 12.6517C14.0506 12.5327 14.1254 12.3906 14.1644 12.237C14.3106 11.6745 14.5025 10.577 14.5025 8.70758C14.5025 6.8382 14.3106 5.74195 14.1644 5.1782C14.1259 5.02403 14.0512 4.88125 13.9466 4.76169C13.8419 4.64213 13.7102 4.54924 13.5625 4.4907C11.4675 3.6857 8 3.70758 8 3.70758C8 3.70758 4.5325 3.6857 2.4375 4.49383C2.28977 4.55236 2.15812 4.64525 2.05345 4.76481C1.94878 4.88437 1.87411 5.02716 1.83563 5.18133C1.69188 5.74133 1.5 6.8382 1.5 8.70758Z" stroke="white" stroke-linecap="round" stroke-linejoin="round"/>
</g>
<defs>
<clipPath id="clip0_1_553">
<rect width="16" height="16" fill="white" transform="translate(0 0.70752)"/>
</clipPath>
</defs>
</svg>
