<svg width="17" height="18" viewBox="0 0 17 18" fill="none" xmlns="http://www.w3.org/2000/svg">
<g clip-path="url(#clip0_85_926)">
<path d="M15.4876 8.45299L12.5128 11.0199L13.4191 14.8586C13.4691 15.067 13.4563 15.2856 13.3821 15.4866C13.308 15.6877 13.1759 15.8623 13.0026 15.9884C12.8293 16.1144 12.6225 16.1863 12.4084 16.1949C12.1943 16.2035 11.9824 16.1484 11.7995 16.0366L8.4612 13.9821L5.12087 16.0366C4.93804 16.1478 4.72642 16.2023 4.51266 16.1934C4.2989 16.1845 4.09255 16.1125 3.9196 15.9866C3.74665 15.8606 3.61483 15.6863 3.54075 15.4856C3.46666 15.2849 3.45362 15.0668 3.50326 14.8586L4.41288 11.0199L1.43812 8.45299C1.27636 8.31318 1.15937 8.12882 1.10176 7.92292C1.04416 7.71702 1.04849 7.49871 1.11421 7.29526C1.17994 7.09181 1.30415 6.91223 1.47132 6.77894C1.6385 6.64566 1.84124 6.56459 2.05423 6.54584L5.95447 6.23118L7.45903 2.59007C7.54047 2.39163 7.67908 2.22189 7.85723 2.10243C8.03539 1.98297 8.24504 1.91919 8.45954 1.91919C8.67404 1.91919 8.8837 1.98297 9.06185 2.10243C9.24001 2.22189 9.37862 2.39163 9.46005 2.59007L10.964 6.23118L14.8642 6.54584C15.0776 6.56389 15.2809 6.64451 15.4487 6.77761C15.6165 6.91071 15.7413 7.09036 15.8074 7.29406C15.8736 7.49776 15.8781 7.71645 15.8205 7.92272C15.7629 8.129 15.6457 8.31369 15.4836 8.45365L15.4876 8.45299Z" fill="#FFC645"/>
</g>
<defs>
<clipPath id="clip0_85_926">
<rect width="16.9231" height="16.9231" fill="white" transform="translate(0 0.861328)"/>
</clipPath>
</defs>
</svg>
