<svg width="17" height="18" viewBox="0 0 17 18" fill="none" xmlns="http://www.w3.org/2000/svg">
<g clip-path="url(#clip0_85_938)">
<path d="M15.8888 7.29085C15.8226 7.08759 15.6978 6.90845 15.5301 6.77599C15.3623 6.64353 15.1591 6.56368 14.9461 6.5465L11.0458 6.23184L9.53996 2.59007C9.45852 2.39163 9.31991 2.22189 9.14176 2.10243C8.9636 1.98297 8.75395 1.91919 8.53945 1.91919C8.32495 1.91919 8.11529 1.98297 7.93714 2.10243C7.75898 2.22189 7.62037 2.39163 7.53894 2.59007L6.03437 6.23118L2.13215 6.5465C1.91874 6.56455 1.71541 6.64517 1.54762 6.77827C1.37983 6.91137 1.25506 7.09102 1.18892 7.29472C1.12279 7.49842 1.11823 7.71711 1.17584 7.92339C1.23344 8.12966 1.35063 8.31435 1.51273 8.45431L4.48749 11.0212L3.58118 14.8593C3.53118 15.0677 3.54406 15.2862 3.61819 15.4873C3.69232 15.6884 3.82438 15.863 3.99769 15.989C4.171 16.1151 4.37778 16.1869 4.59191 16.1955C4.80605 16.2041 5.01792 16.1491 5.20078 16.0373L8.53912 13.9827L11.8794 16.0373C12.0623 16.1484 12.2739 16.203 12.4877 16.1941C12.7014 16.1851 12.9078 16.1132 13.0807 15.9872C13.2537 15.8613 13.3855 15.687 13.4596 15.4863C13.5336 15.2856 13.5467 15.0674 13.497 14.8593L12.5874 11.0205L15.5622 8.45365C15.7256 8.31392 15.8439 8.12883 15.902 7.92183C15.9601 7.71483 15.9555 7.49523 15.8888 7.29085ZM14.8747 7.65245L11.6553 10.4289C11.5819 10.4922 11.5273 10.5744 11.4975 10.6666C11.4676 10.7588 11.4637 10.8575 11.4861 10.9518L12.4698 15.1032C12.4723 15.109 12.4726 15.1154 12.4705 15.1213C12.4684 15.1272 12.4641 15.1321 12.4585 15.135C12.4466 15.1442 12.4433 15.1422 12.4334 15.135L8.8161 12.9105C8.73269 12.8596 8.63682 12.8329 8.53912 12.8332V2.97679C8.55498 2.97679 8.55696 2.98208 8.56225 2.99398L10.1918 6.93388C10.229 7.02394 10.2903 7.10197 10.3691 7.15936C10.4478 7.21675 10.5409 7.25128 10.638 7.25912L14.8628 7.60023C14.8734 7.60023 14.8793 7.60023 14.8853 7.6194C14.8912 7.63857 14.8853 7.64584 14.8747 7.65245Z" fill="#FFC645"/>
</g>
<defs>
<clipPath id="clip0_85_938">
<rect width="16.9231" height="16.9231" fill="white" transform="translate(0.0771484 0.861328)"/>
</clipPath>
</defs>
</svg>
